<?xml version="1.0" encoding="utf-8"?>
<!-- Generator: Adobe Illustrator 24.1.3, SVG Export Plug-In . SVG Version: 6.00 Build 0)  -->
<svg version="1.1" id="Layer_1" xmlns="http://www.w3.org/2000/svg" xmlns:xlink="http://www.w3.org/1999/xlink" x="0px" y="0px"
	 viewBox="0 0 375 68.889" style="enable-background:new 0 0 375 68.889;" xml:space="preserve">
<style type="text/css">
	.st0{fill:#344767;}
</style>
<g>
	<path class="st0" d="M42.03,45.528c0,4.744-1.386,8.226-4.156,10.447c-2.771,2.222-7.127,3.333-13.068,3.333H5.409V12.352h19.396
		c5.392,0,9.223,0.936,11.496,2.808c2.271,1.872,3.407,5.006,3.407,9.398c0,2.797-0.375,4.931-1.123,6.403
		c-0.749,1.473-2.247,2.609-4.494,3.407c2.696,0.55,4.692,1.749,5.991,3.595C41.381,39.812,42.03,42.334,42.03,45.528z M29,26.281
		c0-1.647-0.313-2.795-0.936-3.445c-0.625-0.648-1.711-0.974-3.258-0.974h-7.789v9.511h7.789c1.547,0,2.633-0.386,3.258-1.161
		C28.687,29.44,29,28.129,29,26.281z M30.797,44.779c0-1.797-0.45-3.058-1.348-3.782c-0.899-0.723-2.447-1.086-4.643-1.086h-7.789
		v9.511h7.789c2.196,0,3.744-0.349,4.643-1.049C30.347,47.676,30.797,46.477,30.797,44.779z"/>
	<path class="st0" d="M59.104,60.057c-4.194,0-7.328-1.036-9.399-3.108c-2.072-2.071-3.108-5.205-3.108-9.399V22.312h11.233v23.74
		c0,1.249,0.375,2.147,1.124,2.696c0.749,0.55,1.947,0.824,3.595,0.824c0.948,0,1.959-0.075,3.033-0.225
		c1.073-0.149,2.159-0.375,3.257-0.674V22.312h11.233v36.996H69.589l-0.299-2.022h-0.15c-1.748,0.85-3.508,1.523-5.28,2.022
		C62.087,59.806,60.501,60.057,59.104,60.057z"/>
	<path class="st0" d="M108.381,21.564c4.943,0,8.437,1.436,10.485,4.306c2.046,2.871,3.07,7.751,3.07,14.641
		c0,6.841-1.374,11.808-4.119,14.903c-2.746,3.096-7.189,4.643-13.33,4.643c-3.545,0-6.841-0.176-9.886-0.524
		c-3.046-0.349-5.742-0.873-8.088-1.573V9.506h11.233V24.26c1.697-0.848,3.457-1.509,5.28-1.984
		C104.848,21.801,106.633,21.564,108.381,21.564z M110.703,40.51c0-3.644-0.375-6.028-1.124-7.152
		c-0.749-1.124-2.497-1.685-5.242-1.685c-1.149,0-2.284,0.101-3.407,0.3c-1.124,0.2-2.185,0.475-3.183,0.824v16.401
		c0.749,0.149,1.597,0.262,2.546,0.337c0.948,0.075,2.071,0.112,3.37,0.112c2.996,0,4.917-0.562,5.766-1.685
		C110.278,46.839,110.703,44.356,110.703,40.51z"/>
	<path class="st0" d="M148.895,21.564c4.943,0,8.437,1.436,10.485,4.306c2.046,2.871,3.07,7.751,3.07,14.641
		c0,6.841-1.374,11.808-4.119,14.903c-2.746,3.096-7.189,4.643-13.33,4.643c-3.545,0-6.841-0.176-9.886-0.524
		c-3.046-0.349-5.742-0.873-8.088-1.573V9.506h11.233V24.26c1.697-0.848,3.457-1.509,5.28-1.984
		C145.362,21.801,147.147,21.564,148.895,21.564z M151.217,40.51c0-3.644-0.375-6.028-1.124-7.152
		c-0.749-1.124-2.497-1.685-5.242-1.685c-1.149,0-2.284,0.101-3.407,0.3c-1.124,0.2-2.185,0.475-3.183,0.824v16.401
		c0.749,0.149,1.597,0.262,2.546,0.337c0.948,0.075,2.071,0.112,3.37,0.112c2.996,0,4.917-0.562,5.766-1.685
		C150.792,46.839,151.217,44.356,151.217,40.51z"/>
	<path class="st0" d="M178.775,9.506v49.802h-11.233V9.506H178.775z"/>
	<path class="st0" d="M215.845,48.374v8.912c-1.198,0.749-3.221,1.398-6.066,1.947s-5.842,0.824-8.987,0.824
		c-5.991,0-10.31-1.51-12.955-4.531c-2.647-3.021-3.969-7.926-3.969-14.716c0-6.64,1.397-11.507,4.194-14.604
		c2.795-3.095,7.214-4.643,13.255-4.643c5.891,0,10.047,1.161,12.47,3.482c2.421,2.322,3.632,6.429,3.632,12.319
		c0,1.599-0.025,2.872-0.075,3.82c-0.05,0.949-0.149,2.047-0.3,3.295h-21.867c0.049,2.048,0.599,3.471,1.647,4.269
		c1.049,0.799,2.97,1.198,5.767,1.198c2.396,0,4.842-0.161,7.339-0.487C212.424,49.136,214.396,48.774,215.845,48.374z
		 M201.315,31.149c-2.396,0-4.02,0.412-4.867,1.236c-0.85,0.824-1.273,2.434-1.273,4.831h12.058v-1.648
		c-0.051-1.747-0.463-2.92-1.236-3.52C205.222,31.449,203.662,31.149,201.315,31.149z"/>
	<path class="st0" d="M260.628,41.859h-8.088v-9.361h18.946v24.714c-1.397,0.649-3.894,1.286-7.488,1.91
		c-3.595,0.624-6.865,0.936-9.811,0.936c-8.139,0-13.793-1.873-16.963-5.617c-3.171-3.745-4.755-9.96-4.755-18.647
		c0-8.388,1.846-14.516,5.541-18.386c3.694-3.868,9.586-5.804,17.675-5.804c2.944,0,5.579,0.063,7.9,0.187
		c2.321,0.125,4.106,0.313,5.354,0.562v10.185c-1.647-0.149-3.607-0.262-5.879-0.337c-2.272-0.075-4.73-0.112-7.376-0.112
		c-2.847,0-4.956,0.25-6.329,0.749c-1.373,0.5-2.409,1.374-3.107,2.621c-0.649,1-1.111,2.334-1.386,4.006
		c-0.274,1.673-0.412,3.782-0.412,6.329c0,2.447,0.124,4.493,0.375,6.141c0.249,1.647,0.648,2.971,1.198,3.969
		c0.698,1.348,1.685,2.297,2.958,2.846c1.273,0.55,3.258,0.824,5.954,0.824c0.898,0,1.834-0.037,2.808-0.112
		c0.974-0.075,1.935-0.187,2.884-0.337V41.859z"/>
	<path class="st0" d="M289.31,60.057c-4.194,0-7.327-1.036-9.398-3.108c-2.072-2.071-3.108-5.205-3.108-9.399V22.312h11.233v23.74
		c0,1.249,0.375,2.147,1.124,2.696c0.748,0.55,1.946,0.824,3.594,0.824c0.948,0,1.959-0.075,3.033-0.225
		c1.073-0.149,2.159-0.375,3.258-0.674V22.312h11.233v36.996h-10.484l-0.3-2.022h-0.149c-1.748,0.85-3.508,1.523-5.279,2.022
		C292.292,59.806,290.707,60.057,289.31,60.057z"/>
	<path class="st0" d="M327.952,59.308h-11.233V22.312h10.484l0.374,2.771h0.225c1.847-1.148,3.619-2.022,5.317-2.621
		c1.696-0.599,3.319-0.898,4.868-0.898c2.046,0,3.793,0.312,5.242,0.936c1.447,0.625,2.595,1.561,3.444,2.808h0.3
		c1.697-1.148,3.606-2.06,5.729-2.733c2.121-0.674,4.156-1.011,6.104-1.011c3.644,0,6.353,0.999,8.125,2.995
		c1.771,1.998,2.659,5.043,2.659,9.137v25.612h-11.234V35.194c0-1.248-0.35-2.146-1.048-2.696c-0.7-0.549-1.798-0.824-3.295-0.824
		c-0.8,0-1.647,0.075-2.547,0.225c-0.898,0.15-1.797,0.375-2.695,0.674v26.735h-11.233V35.194c0-1.248-0.351-2.146-1.049-2.696
		c-0.7-0.549-1.798-0.824-3.295-0.824c-0.8,0-1.647,0.075-2.547,0.225c-0.898,0.15-1.797,0.375-2.695,0.674V59.308z"/>
</g>
</svg>
